GREETZ: UnDeaD - BadGirl2k9 - virusofsaten - foxyb - WICCYWOLF - lizzymwah1

VISIT http://www.seedboxworld.biz/ for all ur seedbox needs!

RELEASE NAME: The Other Guys 2010 TS XViD - SDTeam
RELEASED BY: UnDeaD & BadGirl2k9
SIZE: 413 MB

LANGUAGE: English
IMDb: http://www.imdb.com/title/tt1386588/

PLOT: Terry Hoitz's past mistakes in the line of duty 
and Allen Gamble's reluctance to take risks have landed 
them the roles of the "Other Guys", disgraced New York City 
police detectives relegated to filling out paperwork for cocky 
hero cops Danson and Highsmith. The mismatched duo must look 
past their differences when they take on a high-profile 
investigation of shady capitalist David Ershon and attempt to 
fill the shoes of the notoriously reckless 
officers they idolize.

SCREENS: 
http://i658.photobucket.com/albums/uu309/BadGirl2k9/screens/vlcsnap-2010-08-17-00h32m38s152.png 
http://i658.photobucket.com/albums/uu309/BadGirl2k9/screens/vlcsnap-2010-08-17-00h32m49s254.png 
http://i658.photobucket.com/albums/uu309/BadGirl2k9/screens/vlcsnap-2010-08-17-00h32m57s87.png

General
Format                           : AVI
Format/Info                      : Audio Video Interleave
File size                        : 414 MiB
Duration                         : 1h 41mn
Overall bit rate                 : 572 Kbps
Writing application              : MEncoder SVN-r22963
Writing library                  : MPlayer

Video
ID                               : 0
Format                           : MPEG-4 Visual
Format profile                   : Simple@L3
Format settings, BVOP            : No
Format settings, QPel            : No
Format settings, GMC             : No warppoints
Format settings, Matrix          : Default (H.263)
Codec ID                         : XVID
Codec ID/Hint                    : XviD
Duration                         : 1h 41mn
Bit rate                         : 496 Kbps
Width                            : 512 pixels
Height                           : 224 pixels
Display aspect ratio             : 2.25:1
Frame rate                       : 20.000 fps
Resolution                       : 8 bits
Colorimetry                      : 4:2:0
Scan type                        : Progressive
Bits/(Pixel*Frame)               : 0.216
Stream size                      : 359 MiB (87%)
Writing library                  : XviD 1.1.2 (UTC 2006-11-01)

Audio
ID                               : 1
Format                           : MPEG Audio
Format version                   : Version 1
Format profile                   : Layer 3
Codec ID                         : 55
Codec ID/Hint                    : MP3
Duration                         : 1h 41mn
Bit rate mode                    : Constant
Bit rate                         : 64.0 Kbps
Channel(s)                       : 2 channels
Sampling rate                    : 44.1 KHz
Stream size                      : 46.3 MiB (11%)
Alignment                        : Aligned on interleaves
Interleave, duration             : 26 ms (0.52 video frame)
Interleave, preload duration     : 522 ms

GROUP NOTE: Big thanks to seedboxworld.biz for the seedbox!

